# Blender v2.76 (sub 0) OBJ File: 'Cheese.blend'
# www.blender.org
mtllib BlueMilk.mtl
o Cone.002
v 0.032982 0.197732 -0.000000
v 0.029491 0.184704 -0.014740
v 0.032982 0.197732 -0.014740
v 0.031964 0.184042 -0.014516
v 0.035454 0.197069 -0.014516
v 0.034361 0.183399 -0.013851
v 0.037852 0.196427 -0.013851
v 0.036610 0.182797 -0.012765
v 0.040101 0.195824 -0.012765
v 0.038643 0.182252 -0.011291
v 0.042134 0.195279 -0.011291
v 0.040398 0.181782 -0.009475
v 0.043889 0.194809 -0.009475
v 0.041821 0.181400 -0.007370
v 0.045312 0.194428 -0.007370
v 0.042870 0.181119 -0.005041
v 0.046361 0.194147 -0.005041
v 0.043513 0.180947 -0.002560
v 0.047003 0.193975 -0.002560
v 0.043729 0.180889 -0.000000
v 0.047220 0.193917 -0.000000
v 0.043513 0.180947 0.002560
v 0.047003 0.193975 0.002560
v 0.042870 0.181119 0.005041
v 0.046361 0.194147 0.005041
v 0.041821 0.181400 0.007370
v 0.045312 0.194428 0.007370
v 0.040398 0.181782 0.009475
v 0.043889 0.194809 0.009475
v 0.038643 0.182252 0.011291
v 0.042134 0.195279 0.011291
v 0.036610 0.182797 0.012765
v 0.040101 0.195824 0.012765
v 0.034361 0.183399 0.013851
v 0.037852 0.196427 0.013851
v 0.031964 0.184042 0.014516
v 0.035454 0.197069 0.014516
v 0.029491 0.184704 0.014740
v 0.032982 0.197732 0.014740
v 0.027019 0.185367 0.014516
v 0.030510 0.198394 0.014516
v 0.024622 0.186009 0.013851
v 0.028112 0.199036 0.013851
v 0.022373 0.186612 0.012765
v 0.025863 0.199639 0.012765
v 0.020340 0.187156 0.011291
v 0.023830 0.200184 0.011291
v 0.018585 0.187627 0.009475
v 0.022075 0.200654 0.009475
v 0.017161 0.188008 0.007370
v 0.020652 0.201035 0.007370
v 0.016112 0.188289 0.005041
v 0.019603 0.201316 0.005041
v 0.015470 0.188461 0.002560
v 0.018961 0.201489 0.002560
v 0.015254 0.188519 0.000000
v 0.018744 0.201546 0.000000
v 0.015470 0.188461 -0.002560
v 0.018961 0.201489 -0.002560
v 0.016112 0.188289 -0.005041
v 0.019603 0.201316 -0.005041
v 0.017161 0.188008 -0.007370
v 0.020652 0.201035 -0.007370
v 0.018585 0.187627 -0.009475
v 0.022075 0.200654 -0.009475
v 0.020340 0.187156 -0.011291
v 0.023830 0.200184 -0.011291
v 0.022373 0.186612 -0.012765
v 0.025863 0.199639 -0.012765
v 0.024622 0.186009 -0.013851
v 0.028112 0.199036 -0.013851
v 0.027019 0.185367 -0.014516
v 0.030510 0.198394 -0.014516
v -0.020000 0.000000 0.000000
v 0.044070 0.188114 0.000000
v 0.042186 0.181082 0.000000
v 0.042591 0.142953 -0.000000
v 0.040748 0.105763 -0.000000
v 0.012485 0.000284 -0.000000
v 0.007701 -0.003745 -0.000000
v 0.002069 -0.005913 -0.000000
v -0.020000 0.000000 0.000000
v 0.043100 0.188374 -0.005051
v 0.041216 0.181342 -0.005051
v 0.040866 0.143416 -0.008978
v 0.038447 0.106380 -0.011980
v 0.010183 0.000901 -0.011980
v 0.005662 -0.003199 -0.010610
v 0.000389 -0.005463 -0.008743
v -0.020000 0.000000 0.000000
v 0.040336 0.189115 -0.009334
v 0.038452 0.182083 -0.009334
v 0.035954 0.144732 -0.016588
v 0.031892 0.108136 -0.022136
v 0.003629 0.002657 -0.022136
v -0.000143 -0.001644 -0.019606
v -0.004395 -0.004181 -0.016155
v -0.020000 0.000000 0.000000
v 0.036200 0.190223 -0.012195
v 0.034315 0.183191 -0.012195
v 0.028603 0.146702 -0.021674
v 0.022082 0.110765 -0.028922
v -0.006181 0.005286 -0.028922
v -0.008832 0.000685 -0.025616
v -0.011555 -0.002263 -0.021108
v -0.020000 0.000000 0.000000
v 0.031320 0.191531 -0.013200
v 0.029436 0.184499 -0.013200
v 0.019931 0.149025 -0.023459
v 0.010510 0.113865 -0.031305
v -0.017753 0.008386 -0.031305
v -0.019081 0.003431 -0.027727
v -0.020000 0.000000 -0.022847
v -0.020000 0.000000 0.000000
v 0.026441 0.192838 -0.012195
v 0.024557 0.185806 -0.012195
v 0.011260 0.151349 -0.021674
v -0.001061 0.116966 -0.028922
v -0.029325 0.011487 -0.028922
v -0.029330 0.006177 -0.025616
v -0.028445 0.002263 -0.021108
v -0.020000 0.000000 0.000000
v 0.022305 0.193946 -0.009334
v 0.020421 0.186914 -0.009334
v 0.003908 0.153318 -0.016588
v -0.010871 0.119595 -0.022136
v -0.039134 0.014115 -0.022136
v -0.038018 0.008505 -0.019606
v -0.035605 0.004181 -0.016155
v -0.020000 0.000000 0.000000
v 0.019541 0.194687 -0.005051
v 0.017657 0.187655 -0.005051
v -0.001004 0.154635 -0.008978
v -0.017426 0.121351 -0.011980
v -0.045689 0.015872 -0.011980
v -0.043824 0.010061 -0.010610
v -0.040389 0.005463 -0.008743
v -0.020000 0.000000 0.000000
v 0.018571 0.194947 -0.000000
v 0.016686 0.187915 -0.000000
v -0.002729 0.155097 0.000000
v -0.019728 0.121968 0.000000
v -0.047991 0.016489 0.000000
v -0.045863 0.010607 0.000000
v -0.042069 0.005913 0.000000
v -0.020000 0.000000 0.000000
v 0.019541 0.194687 0.005051
v 0.017657 0.187655 0.005051
v -0.001004 0.154635 0.008978
v -0.017426 0.121351 0.011980
v -0.045689 0.015872 0.011980
v -0.043824 0.010061 0.010610
v -0.040389 0.005463 0.008743
v -0.020000 0.000000 0.000000
v 0.022305 0.193946 0.009334
v 0.020421 0.186914 0.009334
v 0.003908 0.153318 0.016588
v -0.010871 0.119595 0.022136
v -0.039134 0.014115 0.022136
v -0.038018 0.008505 0.019606
v -0.035605 0.004181 0.016155
v -0.020000 0.000000 0.000000
v 0.026441 0.192838 0.012195
v 0.024557 0.185806 0.012195
v 0.011260 0.151349 0.021674
v -0.001061 0.116966 0.028922
v -0.029325 0.011487 0.028922
v -0.029330 0.006177 0.025616
v -0.028445 0.002263 0.021108
v -0.020000 0.000000 0.000000
v 0.031320 0.191531 0.013200
v 0.029436 0.184499 0.013200
v 0.019931 0.149025 0.023459
v 0.010510 0.113865 0.031305
v -0.017753 0.008386 0.031305
v -0.019081 0.003431 0.027727
v -0.020000 0.000000 0.022847
v -0.020000 0.000000 0.000000
v 0.036200 0.190223 0.012195
v 0.034315 0.183191 0.012195
v 0.028603 0.146702 0.021674
v 0.022082 0.110765 0.028922
v -0.006181 0.005286 0.028922
v -0.008832 0.000685 0.025616
v -0.011555 -0.002263 0.021108
v -0.020000 0.000000 0.000000
v 0.040336 0.189115 0.009334
v 0.038452 0.182083 0.009334
v 0.035954 0.144732 0.016588
v 0.031892 0.108136 0.022136
v 0.003629 0.002657 0.022136
v -0.000143 -0.001644 0.019606
v -0.004395 -0.004181 0.016155
v -0.020000 0.000000 0.000000
v 0.043100 0.188374 0.005051
v 0.041216 0.181342 0.005051
v 0.040866 0.143416 0.008978
v 0.038447 0.106380 0.011980
v 0.010183 0.000901 0.011980
v 0.005662 -0.003199 0.010610
v 0.000389 -0.005463 0.008743
v 0.020493 0.030170 -0.000000
v 0.032740 0.075877 -0.000000
v 0.018191 0.030787 -0.011980
v 0.030439 0.076494 -0.011980
v 0.011637 0.032543 -0.022136
v 0.023884 0.078250 -0.022136
v 0.001827 0.035171 -0.028922
v 0.014074 0.080879 -0.028922
v -0.009745 0.038272 -0.031305
v 0.002502 0.083980 -0.031305
v -0.021317 0.041373 -0.028922
v -0.009069 0.087080 -0.028922
v -0.031127 0.044001 -0.022136
v -0.018879 0.089709 -0.022136
v -0.037681 0.045758 -0.011980
v -0.025434 0.091465 -0.011980
v -0.039983 0.046374 0.000000
v -0.027736 0.092082 0.000000
v -0.037681 0.045758 0.011980
v -0.025434 0.091465 0.011980
v -0.031127 0.044001 0.022136
v -0.018879 0.089709 0.022136
v -0.021317 0.041373 0.028922
v -0.009069 0.087080 0.028922
v -0.009745 0.038272 0.031305
v 0.002502 0.083980 0.031305
v 0.001827 0.035171 0.028922
v 0.014074 0.080879 0.028922
v 0.011637 0.032543 0.022136
v 0.023884 0.078250 0.022136
v 0.018191 0.030787 0.011980
v 0.030439 0.076494 0.011980
v 0.021310 0.033217 -0.000000
v 0.031924 0.072830 -0.000000
v 0.019008 0.033834 -0.011980
v 0.029622 0.073447 -0.011980
v 0.012453 0.035590 -0.022136
v 0.023067 0.075203 -0.022136
v 0.002643 0.038219 -0.028922
v 0.013257 0.077832 -0.028922
v -0.008929 0.041319 -0.031305
v 0.001686 0.080932 -0.031305
v -0.020500 0.044420 -0.028922
v -0.009886 0.084033 -0.028922
v -0.030310 0.047048 -0.022136
v -0.019696 0.086662 -0.022136
v -0.036865 0.048805 -0.011980
v -0.026251 0.088418 -0.011980
v -0.039167 0.049421 0.000000
v -0.028552 0.089035 0.000000
v -0.036865 0.048805 0.011980
v -0.026251 0.088418 0.011980
v -0.030310 0.047048 0.022136
v -0.019696 0.086662 0.022136
v -0.020500 0.044420 0.028922
v -0.009886 0.084033 0.028922
v -0.008929 0.041319 0.031305
v 0.001686 0.080932 0.031305
v 0.002643 0.038219 0.028922
v 0.013257 0.077832 0.028922
v 0.012453 0.035590 0.022136
v 0.023067 0.075203 0.022136
v 0.019008 0.033834 0.011980
v 0.029622 0.073447 0.011980
vn 0.032100 0.119800 0.992200
vn -0.088700 0.996000 0.000000
vn -0.063500 0.989300 0.131400
vn 0.008400 0.970000 0.242900
vn 0.116100 0.941100 0.317400
vn 0.243000 0.907100 0.343500
vn 0.370000 0.873100 0.317400
vn 0.477700 0.844200 0.242900
vn 0.549600 0.825000 0.131500
vn 0.574900 0.818200 0.000000
vn 0.549600 0.825000 -0.131400
vn 0.477700 0.844300 -0.242800
vn 0.370000 0.873100 -0.317300
vn 0.243000 0.907100 -0.343500
vn 0.116100 0.941200 -0.317300
vn 0.008400 0.970000 -0.242900
vn -0.063500 0.989300 -0.131400
vn -0.849500 0.527500 0.000000
vn -0.779100 0.508700 0.366300
vn -0.467600 0.839400 0.277000
vn -0.578700 0.455000 0.676800
vn -0.316000 0.798800 0.511900
vn -0.278800 0.374600 0.884200
vn -0.089100 0.738000 0.668900
vn 0.075000 0.279800 0.957100
vn 0.428800 0.185000 0.884200
vn 0.446200 0.594500 0.668900
vn 0.728700 0.104600 0.676800
vn 0.673000 0.533700 0.511900
vn 0.929100 0.050900 0.366300
vn 0.824600 0.493100 0.277000
vn 0.999500 0.032100 0.000000
vn 0.929100 0.050900 -0.366300
vn 0.824600 0.493100 -0.277000
vn 0.728700 0.104600 -0.676800
vn 0.673000 0.533700 -0.511900
vn 0.428800 0.185000 -0.884200
vn 0.446200 0.594500 -0.668900
vn 0.075000 0.279800 -0.957100
vn 0.178500 0.666200 -0.724000
vn -0.278800 0.374600 -0.884200
vn -0.089100 0.738000 -0.668900
vn -0.578700 0.455000 -0.676800
vn -0.779100 0.508700 -0.366300
vn -0.467600 0.839400 -0.277000
vn -0.520800 0.853600 0.000000
vn -0.999800 0.020300 0.000000
vn -0.928400 0.001200 0.371600
vn -0.914500 0.136800 0.380600
vn -0.725100 -0.053300 0.686600
vn -0.420800 -0.134800 0.897100
vn -0.394700 -0.002500 0.918800
vn -0.061900 -0.231000 0.971000
vn -0.027000 -0.101000 0.994500
vn 0.297000 -0.327100 0.897100
vn 0.340500 -0.199500 0.918800
vn 0.601300 -0.408700 0.686600
vn 0.652200 -0.283000 0.703200
vn 0.804600 -0.463100 0.371600
vn 0.860400 -0.338800 0.380600
vn 0.876000 -0.482300 0.000000
vn 0.804600 -0.463100 -0.371600
vn 0.860400 -0.338800 -0.380600
vn 0.601300 -0.408700 -0.686600
vn 0.652200 -0.283000 -0.703200
vn 0.297000 -0.327100 -0.897100
vn 0.340500 -0.199500 -0.918800
vn -0.061900 -0.231000 -0.971000
vn -0.420800 -0.134800 -0.897100
vn -0.394700 -0.002500 -0.918800
vn -0.725100 -0.053300 -0.686600
vn -0.706300 0.081000 -0.703200
vn -0.928400 0.001200 -0.371600
vn -0.914500 0.136800 -0.380600
vn -0.987700 0.156400 0.000000
vn -0.965900 0.258800 0.000000
vn -0.892400 0.239100 0.382700
vn -0.919600 0.103400 0.379000
vn -0.683000 0.183000 0.707100
vn -0.712200 0.047800 0.700300
vn -0.369600 0.099000 0.923900
vn 0.000000 0.000000 1.000000
vn -0.035700 -0.133400 0.990400
vn 0.369600 -0.099000 0.923900
vn 0.330300 -0.231500 0.915000
vn 0.683000 -0.183000 0.707100
vn 0.640700 -0.314600 0.700300
vn 0.892400 -0.239100 0.382700
vn 0.848100 -0.370200 0.379000
vn 0.965900 -0.258800 0.000000
vn 0.920900 -0.389700 0.000000
vn 0.892400 -0.239100 -0.382700
vn 0.848100 -0.370200 -0.379000
vn 0.683000 -0.183000 -0.707100
vn 0.369600 -0.099000 -0.923900
vn 0.330300 -0.231500 -0.915000
vn 0.000000 0.000000 -1.000000
vn -0.035700 -0.133400 -0.990400
vn -0.369600 0.099000 -0.923900
vn -0.401800 -0.035300 -0.915000
vn -0.683000 0.183000 -0.707100
vn -0.892400 0.239100 -0.382700
vn -0.919600 0.103400 -0.379000
vn -0.992400 0.122900 0.000000
vn -0.401800 -0.035300 0.915000
vn 0.640700 -0.314600 -0.700300
vn -0.712200 0.047800 -0.700300
vn -0.706300 0.081000 0.703200
vn 0.933500 -0.358400 0.000000
vn -0.027000 -0.101000 -0.994500
vn 0.178500 0.666200 0.724000
vn 0.877900 0.478900 0.000000
vn -0.316000 0.798800 -0.511900
vn 0.258800 0.965900 0.000000
vn 0.084200 -0.022600 -0.996200
vn 0.250000 -0.067000 -0.965900
vn 0.408200 -0.109400 -0.906300
vn 0.554000 -0.148500 -0.819200
vn 0.791200 -0.212000 -0.573600
vn 0.875400 -0.234600 -0.422600
vn 0.933000 -0.250000 -0.258800
vn 0.962200 -0.257800 -0.087200
vn 0.962200 -0.257800 0.087200
vn 0.933000 -0.250000 0.258800
vn 0.875400 -0.234600 0.422600
vn 0.791200 -0.212000 0.573600
vn 0.554000 -0.148500 0.819200
vn 0.408200 -0.109400 0.906300
vn 0.250000 -0.067000 0.965900
vn 0.084200 -0.022600 0.996200
vn -0.084200 0.022600 0.996200
vn -0.250000 0.067000 0.965900
vn -0.408200 0.109400 0.906300
vn -0.554000 0.148500 0.819200
vn -0.791200 0.212000 0.573600
vn -0.875400 0.234600 0.422600
vn -0.933000 0.250000 0.258800
vn -0.962300 0.257800 0.087200
vn -0.962300 0.257800 -0.087200
vn -0.933000 0.250000 -0.258800
vn -0.875400 0.234600 -0.422600
vn -0.791200 0.212000 -0.573600
vn -0.554000 0.148500 -0.819200
vn -0.408200 0.109400 -0.906300
vn -0.250000 0.067000 -0.965900
vn -0.084200 0.022600 -0.996200
vn 0.962300 -0.257800 -0.087200
vn 0.962300 -0.257800 0.087200
usemtl Bottle
s 1
f 74//1 81//2 89//3
f 82//1 89//3 97//4
f 90//1 97//4 105//5
f 98//1 105//5 113//6
f 106//1 113//6 121//7
f 114//1 121//7 129//8
f 122//1 129//8 137//9
f 130//1 137//9 145//10
f 138//1 145//10 153//11
f 146//1 153//11 161//12
f 154//1 161//12 169//13
f 162//1 169//13 177//14
f 170//1 177//14 185//15
f 178//1 185//15 193//16
f 186//1 193//16 201//17
f 194//1 201//17 81//2
f 79//18 87//19 88//20
f 87//19 95//21 96//22
f 95//21 103//23 104//24
f 104//24 103//23 111//25
f 111//25 119//26 120//27
f 119//26 127//28 128//29
f 127//28 135//30 136//31
f 136//31 135//30 143//32
f 143//32 151//33 152//34
f 151//33 159//35 160//36
f 160//36 159//35 167//37
f 168//38 167//37 175//39
f 176//40 175//39 183//41
f 184//42 183//41 191//43
f 191//43 199//44 200//45
f 199//44 79//18 80//46
f 77//47 85//48 86//49
f 86//49 85//48 93//50
f 93//50 101//51 102//52
f 101//51 109//53 110//54
f 109//53 117//55 118//56
f 117//55 125//57 126//58
f 125//57 133//59 134//60
f 134//60 133//59 141//61
f 141//61 149//62 150//63
f 149//62 157//64 158//65
f 157//64 165//66 166//67
f 166//67 165//66 173//68
f 173//68 181//69 182//70
f 181//69 189//71 190//72
f 189//71 197//73 198//74
f 197//73 77//47 78//75
f 75//76 83//77 84//78
f 84//78 83//77 91//79
f 92//80 91//79 99//81
f 99//81 107//82 108//83
f 107//82 115//84 116//85
f 115//84 123//86 124//87
f 123//86 131//88 132//89
f 131//88 139//90 140//91
f 139//90 147//92 148//93
f 148//93 147//92 155//94
f 155//94 163//95 164//96
f 163//95 171//97 172//98
f 171//97 179//99 180//100
f 180//100 179//99 187//101
f 187//101 195//102 196//103
f 196//103 195//102 75//76
f 76//104 84//78 85//48
f 84//78 92//80 93//50
f 93//50 92//80 100//105
f 100//105 108//83 109//53
f 108//83 116//85 117//55
f 117//55 116//85 124//87
f 124//87 132//89 133//59
f 132//89 140//91 141//61
f 141//61 140//91 148//93
f 148//93 156//106 157//64
f 156//106 164//96 165//66
f 165//66 164//96 172//98
f 172//98 180//100 181//69
f 180//100 188//107 189//71
f 188//107 196//103 197//73
f 196//103 76//104 77//47
f 78//75 86//49 205//77
f 205//77 86//49 94//108
f 94//108 102//52 209//81
f 102//52 110//54 211//82
f 211//82 110//54 118//56
f 118//56 126//58 215//86
f 126//58 134//60 217//88
f 217//88 134//60 142//109
f 142//109 150//63 221//92
f 221//92 150//63 158//65
f 158//65 166//67 225//95
f 225//95 166//67 174//110
f 174//110 182//70 229//99
f 182//70 190//72 231//101
f 231//101 190//72 198//74
f 198//74 78//75 203//76
f 81//2 80//46 88//20
f 88//20 96//22 97//4
f 96//22 104//24 105//5
f 104//24 112//111 113//6
f 112//111 120//27 121//7
f 121//7 120//27 128//29
f 128//29 136//31 137//9
f 137//9 136//31 144//112
f 145//10 144//112 152//34
f 152//34 160//36 161//12
f 161//12 160//36 168//38
f 168//38 176//40 177//14
f 176//40 184//42 185//15
f 185//15 184//42 192//113
f 192//113 200//45 201//17
f 200//45 80//46 81//2
f 232//102 202//76 79//18
f 230//101 232//102 199//44
f 228//99 230//101 191//43
f 175//39 226//97 228//99
f 224//95 226//97 175//39
f 222//94 224//95 167//37
f 220//92 222//94 159//35
f 218//90 220//92 151//33
f 216//88 218//90 143//32
f 214//86 216//88 135//30
f 212//84 214//86 127//28
f 210//82 212//84 119//26
f 103//23 208//81 210//82
f 206//79 208//81 103//23
f 204//77 206//79 95//21
f 202//76 204//77 87//19
f 82//1 74//1 89//3
f 90//1 82//1 97//4
f 98//1 90//1 105//5
f 106//1 98//1 113//6
f 114//1 106//1 121//7
f 122//1 114//1 129//8
f 130//1 122//1 137//9
f 138//1 130//1 145//10
f 146//1 138//1 153//11
f 154//1 146//1 161//12
f 162//1 154//1 169//13
f 170//1 162//1 177//14
f 178//1 170//1 185//15
f 186//1 178//1 193//16
f 194//1 186//1 201//17
f 74//1 194//1 81//2
f 80//46 79//18 88//20
f 88//20 87//19 96//22
f 96//22 95//21 104//24
f 112//111 104//24 111//25
f 112//111 111//25 120//27
f 120//27 119//26 128//29
f 128//29 127//28 136//31
f 144//112 136//31 143//32
f 144//112 143//32 152//34
f 152//34 151//33 160//36
f 168//38 160//36 167//37
f 176//40 168//38 175//39
f 184//42 176//40 183//41
f 192//113 184//42 191//43
f 192//113 191//43 200//45
f 200//45 199//44 80//46
f 78//75 77//47 86//49
f 94//108 86//49 93//50
f 94//108 93//50 102//52
f 102//52 101//51 110//54
f 110//54 109//53 118//56
f 118//56 117//55 126//58
f 126//58 125//57 134//60
f 142//109 134//60 141//61
f 142//109 141//61 150//63
f 150//63 149//62 158//65
f 158//65 157//64 166//67
f 174//110 166//67 173//68
f 174//110 173//68 182//70
f 182//70 181//69 190//72
f 190//72 189//71 198//74
f 198//74 197//73 78//75
f 76//104 75//76 84//78
f 92//80 84//78 91//79
f 100//105 92//80 99//81
f 100//105 99//81 108//83
f 108//83 107//82 116//85
f 116//85 115//84 124//87
f 124//87 123//86 132//89
f 132//89 131//88 140//91
f 140//91 139//90 148//93
f 156//106 148//93 155//94
f 156//106 155//94 164//96
f 164//96 163//95 172//98
f 172//98 171//97 180//100
f 188//107 180//100 187//101
f 188//107 187//101 196//103
f 76//104 196//103 75//76
f 77//47 76//104 85//48
f 85//48 84//78 93//50
f 101//51 93//50 100//105
f 101//51 100//105 109//53
f 109//53 108//83 117//55
f 125//57 117//55 124//87
f 125//57 124//87 133//59
f 133//59 132//89 141//61
f 149//62 141//61 148//93
f 149//62 148//93 157//64
f 157//64 156//106 165//66
f 173//68 165//66 172//98
f 173//68 172//98 181//69
f 181//69 180//100 189//71
f 189//71 188//107 197//73
f 197//73 196//103 77//47
f 203//76 78//75 205//77
f 207//79 205//77 94//108
f 207//79 94//108 209//81
f 209//81 102//52 211//82
f 213//84 211//82 118//56
f 213//84 118//56 215//86
f 215//86 126//58 217//88
f 219//90 217//88 142//109
f 219//90 142//109 221//92
f 223//94 221//92 158//65
f 223//94 158//65 225//95
f 227//97 225//95 174//110
f 227//97 174//110 229//99
f 229//99 182//70 231//101
f 233//102 231//101 198//74
f 233//102 198//74 203//76
f 89//3 81//2 88//20
f 89//3 88//20 97//4
f 97//4 96//22 105//5
f 105//5 104//24 113//6
f 113//6 112//111 121//7
f 129//8 121//7 128//29
f 129//8 128//29 137//9
f 145//10 137//9 144//112
f 153//11 145//10 152//34
f 153//11 152//34 161//12
f 169//13 161//12 168//38
f 169//13 168//38 177//14
f 177//14 176//40 185//15
f 193//16 185//15 192//113
f 193//16 192//113 201//17
f 201//17 200//45 81//2
f 199//44 232//102 79//18
f 191//43 230//101 199//44
f 183//41 228//99 191//43
f 183//41 175//39 228//99
f 167//37 224//95 175//39
f 159//35 222//94 167//37
f 151//33 220//92 159//35
f 143//32 218//90 151//33
f 135//30 216//88 143//32
f 127//28 214//86 135//30
f 119//26 212//84 127//28
f 111//25 210//82 119//26
f 111//25 103//23 210//82
f 95//21 206//79 103//23
f 87//19 204//77 95//21
f 79//18 202//76 87//19
usemtl BlueBand
s off
f 1//114 5//114 3//114
f 3//115 5//115 4//115
f 1//114 7//114 5//114
f 5//116 7//116 6//116
f 1//114 9//114 7//114
f 7//117 9//117 8//117
f 1//114 11//114 9//114
f 9//118 11//118 10//118
f 1//114 13//114 11//114
f 11//94 13//94 12//94
f 1//114 15//114 13//114
f 12//119 13//119 15//119
f 1//114 17//114 15//114
f 15//120 17//120 16//120
f 1//114 19//114 17//114
f 16//121 17//121 19//121
f 1//114 21//114 19//114
f 18//122 19//122 21//122
f 1//114 23//114 21//114
f 21//123 23//123 22//123
f 1//114 25//114 23//114
f 23//124 25//124 24//124
f 1//114 27//114 25//114
f 25//125 27//125 26//125
f 1//114 29//114 27//114
f 27//126 29//126 28//126
f 1//114 31//114 29//114
f 29//86 31//86 30//86
f 1//114 33//114 31//114
f 31//127 33//127 32//127
f 1//114 35//114 33//114
f 32//128 33//128 35//128
f 1//114 37//114 35//114
f 35//129 37//129 36//129
f 1//114 39//114 37//114
f 37//130 39//130 38//130
f 1//114 41//114 39//114
f 39//131 41//131 40//131
f 1//114 43//114 41//114
f 40//132 41//132 43//132
f 1//114 45//114 43//114
f 43//133 45//133 44//133
f 1//114 47//114 45//114
f 45//134 47//134 46//134
f 1//114 49//114 47//114
f 46//79 47//79 49//79
f 1//114 51//114 49//114
f 48//135 49//135 51//135
f 1//114 53//114 51//114
f 51//136 53//136 52//136
f 1//114 55//114 53//114
f 52//137 53//137 55//137
f 1//114 57//114 55//114
f 54//138 55//138 57//138
f 1//114 59//114 57//114
f 57//139 59//139 58//139
f 1//114 61//114 59//114
f 59//140 61//140 60//140
f 1//114 63//114 61//114
f 60//141 61//141 63//141
f 1//114 65//114 63//114
f 63//142 65//142 64//142
f 1//114 67//114 65//114
f 64//101 65//101 67//101
f 1//114 69//114 67//114
f 67//143 69//143 68//143
f 1//114 71//114 69//114
f 68//144 69//144 71//144
f 1//114 73//114 71//114
f 71//145 73//145 72//145
f 1//114 3//114 73//114
f 73//146 3//146 2//146
f 2//115 3//115 4//115
f 4//116 5//116 6//116
f 6//117 7//117 8//117
f 8//118 9//118 10//118
f 10//94 11//94 12//94
f 14//119 12//119 15//119
f 14//120 15//120 16//120
f 18//121 16//121 19//121
f 20//147 18//147 21//147
f 20//148 21//148 22//148
f 22//124 23//124 24//124
f 24//125 25//125 26//125
f 26//126 27//126 28//126
f 28//86 29//86 30//86
f 30//127 31//127 32//127
f 34//128 32//128 35//128
f 34//129 35//129 36//129
f 36//130 37//130 38//130
f 38//131 39//131 40//131
f 42//132 40//132 43//132
f 42//133 43//133 44//133
f 44//134 45//134 46//134
f 48//79 46//79 49//79
f 50//135 48//135 51//135
f 50//136 51//136 52//136
f 54//137 52//137 55//137
f 56//138 54//138 57//138
f 56//139 57//139 58//139
f 58//140 59//140 60//140
f 62//141 60//141 63//141
f 62//142 63//142 64//142
f 66//101 64//101 67//101
f 66//143 67//143 68//143
f 70//144 68//144 71//144
f 70//145 71//145 72//145
f 72//146 73//146 2//146
s 1
f 233//102 203//76 235//76
f 231//101 233//102 265//102
f 229//99 231//101 263//101
f 227//97 229//99 261//99
f 225//95 227//97 259//97
f 223//94 225//95 257//95
f 221//92 223//94 255//94
f 219//90 221//92 253//92
f 217//88 219//90 251//90
f 215//86 217//88 249//88
f 245//84 213//84 215//86
f 243//82 211//82 213//84
f 209//81 211//82 243//82
f 207//79 209//81 241//81
f 205//77 207//79 239//79
f 203//76 205//77 237//77
f 234//76 236//77 204//77
f 236//77 238//79 206//79
f 238//79 240//81 208//81
f 240//81 242//82 210//82
f 242//82 244//84 212//84
f 244//84 246//86 214//86
f 246//86 248//88 216//88
f 248//88 250//90 218//90
f 218//90 250//90 252//92
f 252//92 254//94 222//94
f 254//94 256//95 224//95
f 256//95 258//97 226//97
f 258//97 260//99 228//99
f 260//99 262//101 230//101
f 262//101 264//102 232//102
f 264//102 234//76 202//76
f 265//102 233//102 235//76
f 263//101 231//101 265//102
f 261//99 229//99 263//101
f 259//97 227//97 261//99
f 257//95 225//95 259//97
f 255//94 223//94 257//95
f 253//92 221//92 255//94
f 251//90 219//90 253//92
f 249//88 217//88 251//90
f 247//86 215//86 249//88
f 247//86 245//84 215//86
f 245//84 243//82 213//84
f 241//81 209//81 243//82
f 239//79 207//79 241//81
f 237//77 205//77 239//79
f 235//76 203//76 237//77
f 202//76 234//76 204//77
f 204//77 236//77 206//79
f 206//79 238//79 208//81
f 208//81 240//81 210//82
f 210//82 242//82 212//84
f 212//84 244//84 214//86
f 214//86 246//86 216//88
f 216//88 248//88 218//90
f 220//92 218//90 252//92
f 220//92 252//92 222//94
f 222//94 254//94 224//95
f 224//95 256//95 226//97
f 226//97 258//97 228//99
f 228//99 260//99 230//101
f 230//101 262//101 232//102
f 232//102 264//102 202//76
usemtl Paper
f 235//76 237//77 236//77
f 237//77 239//79 238//79
f 239//79 241//81 240//81
f 241//81 243//82 242//82
f 242//82 243//82 245//84
f 245//84 247//86 246//86
f 247//86 249//88 248//88
f 248//88 249//88 251//90
f 251//90 253//92 252//92
f 253//92 255//94 254//94
f 255//94 257//95 256//95
f 257//95 259//97 258//97
f 259//97 261//99 260//99
f 260//99 261//99 263//101
f 262//101 263//101 265//102
f 265//102 235//76 234//76
f 234//76 235//76 236//77
f 236//77 237//77 238//79
f 238//79 239//79 240//81
f 240//81 241//81 242//82
f 244//84 242//82 245//84
f 244//84 245//84 246//86
f 246//86 247//86 248//88
f 250//90 248//88 251//90
f 250//90 251//90 252//92
f 252//92 253//92 254//94
f 254//94 255//94 256//95
f 256//95 257//95 258//97
f 258//97 259//97 260//99
f 262//101 260//99 263//101
f 264//102 262//101 265//102
f 264//102 265//102 234//76
